{"title":"Paranormal Activity *2007* [DVDRip.XviD-miguel] [ENG]","uid":6395063,"size":738489093,"categoryP":"video","categoryS":"movies","magnet":"?xt=urn:btih:0aa6e987349b5048cad965c862dcc22e6ce52bbf&amp;dn=Paranormal+Activity+%2A2007%2A+%5BDVDRip.XviD-miguel%5D+%5BENG%5D&amp;tr=udp%3A%2F%2Ftracker.openbittorrent.com%3A80&amp;tr=udp%3A%2F%2Fopen.demonii.com%3A1337&amp;tr=udp%3A%2F%2Ftracker.coppersurfer.tk%3A6969&amp;tr=udp%3A%2F%2Fexodus.desync.com%3A6969","seeders":7,"leechers":2,"uploader":"miguel1983","files":-1,"time":1305491616,"description":" &lt;a href=&quot;http://imageshack.us/m/864/7676/mv5bmjy1njcxodq4mv5bml5.jpg&quot; rel=&quot;nofollow&quot; target=&quot;_NEW&quot;&gt;http://imageshack.us/m/864/7676/mv5bmjy1njcxodq4mv5bml5.jpg&lt;/a&gt;\n\nCountry.......: USA\nGenre.........: Horror, Thriller\nDate release..: 14.10.2007 [World]\nDirector......: Oren Peli\nWriters.......: Oren Peli\nDuration......: 86 min.\nMore..........: http://www.imdb.com/title/tt1179904\nTrailer.......: http://www.imdb.com/video/imdb/vi1135609113\nTrailer.......:\n\nPilot :\nAfter moving into a suburban home, a couple becomes increasingly disturbed by a nightly demonic presence. \n\nCats :\nKatie Featherston   \t ...  \tKatie\nMicah Sloat \t... \tMicah\nMark Fredrichs \t... \tPsychic\nAmber Armstrong \t... \tAmber\nAshley Palmer \t... \tDiane Girl on the Internet\nRandy McDowell \t... \tLt. Randy Hudson\nJames Piper \t... \tRichard \n\nData Technical :\n!!! SAMPLE !!!\nAudio.....: English\nSubtitles.: English .srt, Spanish .srt, Italian .srt, French .srt, Dutch .srt, Polish .txt\nFormat                           : AVI\nFormat/Info                      : Audio Video Interleave\nFile size                        : 700 MiB\nDuration                         : 1h 26mn\nOverall bit rate                 : 1 134 Kbps\nWriting application              : VirtualDubMod 1.5.10.2 (build 2540/release)\nWriting library                  : VirtualDubMod build 2540/release\nVideo\nID                               : 0\nFormat                           : MPEG-4 Visual\nFormat profile                   : Advanced Simple@L5\nFormat settings, BVOP            : Yes\nFormat settings, QPel            : No\nFormat settings, GMC             : No warppoints\nFormat settings, Matrix          : Default (H.263)\nMuxing mode                      : Packed bitstream\nCodec ID                         : XVID\nCodec ID/Hint                    : XviD\nDuration                         : 1h 26mn\nBit rate                         : 676 Kbps\nWidth                            : 608 pixels\nHeight                           : 336 pixels\nDisplay aspect ratio             : 16:9\nFrame rate                       : 23.976 fps\nColor space                      : YUV\nChroma subsampling               : 4:2:0\nBit depth                        : 8 bits\nScan type                        : Progressive\nBits/(Pixel*Frame)               : 0.138\nStream size                      : 418 MiB (60%)\nWriting library                  : XviD 1.3.0.dev55\nAudio\nID                               : 1\nFormat                           : AC-3\nFormat/Info                      : Audio Coding 3\nMode extension                   : CM (complete main)\nCodec ID                         : 2000\nDuration                         : 1h 26mn\nBit rate mode                    : Constant\nBit rate                         : 448 Kbps\nChannel(s)                       : 6 channels\nChannel positions                : Front: L C R, Side: L R, LFE\nSampling rate                    : 48.0 KHz\nBit depth                        : 16 bits\nStream size                      : 277 MiB (40%)\nAlignment                        : Split accross interleaves\nInterleave, duration             : 42 ms (1.00 video frame)\nInterleave, preload duration     : 500 ms\n\nScreen : &lt;a href=&quot;\nhttp://imageshack.us/m/685/6663/paranormalactivity2007s.jpg&quot; rel=&quot;nofollow&quot; target=&quot;_NEW&quot;&gt;\nhttp://imageshack.us/m/685/6663/paranormalactivity2007s.jpg&lt;/a&gt; &lt;a href=&quot;\nhttp://imageshack.us/m/219/6663/paranormalactivity2007s.jpg&quot; rel=&quot;nofollow&quot; target=&quot;_NEW&quot;&gt;\nhttp://imageshack.us/m/219/6663/paranormalactivity2007s.jpg&lt;/a&gt; &lt;a href=&quot;\nhttp://imageshack.us/m/685/3082/paranormalactivity2007ss.jpg&quot; rel=&quot;nofollow&quot; target=&quot;_NEW&quot;&gt;\nhttp://imageshack.us/m/685/3082/paranormalactivity2007ss.jpg&lt;/a&gt; &lt;a href=&quot;\nhttp://imageshack.us/m/861/6663/paranormalactivity2007s.jpg&quot; rel=&quot;nofollow&quot; target=&quot;_NEW&quot;&gt;\nhttp://imageshack.us/m/861/6663/paranormalactivity2007s.jpg&lt;/a&gt; &lt;a href=&quot;\nhttp://imageshack.us/m/196/6663/paranormalactivity2007s.jpg&quot; rel=&quot;nofollow&quot; target=&quot;_NEW&quot;&gt;\nhttp://imageshack.us/m/196/6663/paranormalactivity2007s.jpg&lt;/a&gt;","torrent":{"xt":"urn:btih:0aa6e987349b5048cad965c862dcc22e6ce52bbf","amp;dn":"Paranormal+Activity+%2A2007%2A+%5BDVDRip.XviD-miguel%5D+%5BENG%5D","amp;tr":["udp%3A%2F%2Ftracker.openbittorrent.com%3A80","udp%3A%2F%2Fopen.demonii.com%3A1337","udp%3A%2F%2Ftracker.coppersurfer.tk%3A6969","udp%3A%2F%2Fexodus.desync.com%3A6969"],"infoHash":"0aa6e987349b5048cad965c862dcc22e6ce52bbf","infoHashBuffer":{"type":"Buffer","data":[10,166,233,135,52,155,80,72,202,217,101,200,98,220,194,46,108,229,43,191]},"announce":[],"urlList":[]}}